#define cleaning_width 45
#define cleaning_height 45
static unsigned char cleaning_bits[] = {
   0x00, 0x00, 0x00, 0x00, 0x00, 0x00, 0x00, 0x00, 0x00, 0x00, 0x00, 0x00,
   0x00, 0x00, 0x00, 0x00, 0x00, 0x00, 0x00, 0x00, 0x00, 0x00, 0x1c, 0x00,
   0x00, 0x38, 0x00, 0x00, 0x36, 0x00, 0x00, 0x44, 0x00, 0x00, 0x14, 0x00,
   0x00, 0x44, 0x00, 0x00, 0x1c, 0x00, 0x00, 0x6c, 0x00, 0x00, 0x00, 0x00,
   0x00, 0x38, 0xfc, 0xe1, 0x01, 0x00, 0x00, 0x00, 0x06, 0x1b, 0x06, 0x00,
   0x00, 0x00, 0x03, 0x0e, 0x04, 0x00, 0x00, 0xbc, 0x39, 0x0c, 0x0c, 0x00,
   0x00, 0xc3, 0x04, 0x01, 0x0c, 0x00, 0x00, 0x81, 0x04, 0x01, 0x04, 0x00,
   0x80, 0x01, 0x00, 0x00, 0x04, 0x00, 0x80, 0xc0, 0x03, 0x00, 0x06, 0x00,
   0x80, 0x61, 0x02, 0x07, 0x0c, 0x00, 0x00, 0x21, 0x82, 0x09, 0x10, 0x00,
   0x00, 0x33, 0x62, 0x28, 0x10, 0x00, 0x80, 0x11, 0x33, 0xf8, 0x10, 0x00,
   0x80, 0x08, 0x0d, 0x8c, 0x10, 0x00, 0x80, 0x88, 0x07, 0x83, 0x18, 0x00,
   0x80, 0x84, 0xc1, 0xc0, 0x0c, 0x00, 0x80, 0x06, 0x60, 0xf0, 0x03, 0x00,
   0x00, 0x03, 0x18, 0x18, 0x01, 0x00, 0x00, 0x03, 0x0c, 0x06, 0xc1, 0x00,
   0x00, 0x01, 0x00, 0x83, 0xb1, 0x01, 0x80, 0x00, 0xc0, 0xc0, 0x1c, 0x01,
   0x80, 0x00, 0x60, 0xf0, 0x06, 0x03, 0x80, 0x00, 0x00, 0x98, 0x06, 0x01,
   0x60, 0x00, 0x00, 0x86, 0x8c, 0x00, 0x30, 0x00, 0x80, 0x61, 0x88, 0x00,
   0x0c, 0x00, 0xc0, 0x18, 0x70, 0x00, 0x04, 0x00, 0x00, 0x0c, 0x00, 0x00,
   0x06, 0x00, 0x00, 0x03, 0x00, 0x00, 0x04, 0x00, 0x80, 0x01, 0x00, 0x00,
   0x0c, 0x00, 0x60, 0x00, 0x00, 0x00, 0x08, 0x00, 0x30, 0x00, 0x00, 0x00,
   0x10, 0x00, 0x0c, 0x00, 0x00, 0x00, 0x30, 0xf0, 0x03, 0x00, 0x00, 0x00,
   0x20, 0x8c, 0x00, 0x00, 0x00, 0x00, 0x60, 0x06, 0x00, 0x00, 0x00, 0x00,
   0xc0, 0x01, 0x00, 0x00, 0x00, 0x00, 0x00, 0x00, 0x00, 0x00, 0x00, 0x00,
   0x00, 0x00, 0x00, 0x00, 0x00, 0x00 };
