#define clean_rotated_width 45
#define clean_rotated_height 45
static unsigned char clean_rotated_bits[] = {
   0x00, 0x00, 0x00, 0x00, 0x00, 0x00, 0x00, 0x00, 0x00, 0x00, 0x00, 0x00,
   0x00, 0x00, 0x00, 0x00, 0x00, 0x00, 0x00, 0x00, 0x00, 0x00, 0x70, 0x00,
   0x00, 0xe0, 0x00, 0x00, 0xd8, 0x00, 0x00, 0x10, 0x01, 0x00, 0x50, 0x00,
   0x00, 0x10, 0x01, 0x00, 0x70, 0x00, 0x00, 0xb0, 0x01, 0x00, 0x00, 0x00,
   0x00, 0xe0, 0xf0, 0x87, 0x07, 0x00, 0x00, 0x00, 0x18, 0x6c, 0x18, 0x00,
   0x00, 0x00, 0x0c, 0x38, 0x10, 0x00, 0x00, 0xf0, 0xe6, 0x30, 0x30, 0x00,
   0x00, 0x0c, 0x13, 0x04, 0x30, 0x00, 0x00, 0x04, 0x12, 0x04, 0x10, 0x00,
   0x00, 0x06, 0x00, 0x00, 0x10, 0x00, 0x00, 0x02, 0x0f, 0x00, 0x18, 0x00,
   0x00, 0x86, 0x09, 0x1c, 0x30, 0x00, 0x00, 0x84, 0x08, 0x26, 0x40, 0x00,
   0x00, 0xcc, 0x88, 0xa1, 0x40, 0x00, 0x00, 0x46, 0xcc, 0xe0, 0x43, 0x00,
   0x00, 0x22, 0x34, 0x30, 0x42, 0x00, 0x00, 0x22, 0x1e, 0x0c, 0x62, 0x00,
   0x00, 0x12, 0x06, 0x03, 0x33, 0x00, 0x00, 0x1a, 0x80, 0xc1, 0x0f, 0x00,
   0x00, 0x0c, 0x60, 0x60, 0x04, 0x00, 0x00, 0x0c, 0x30, 0x18, 0x04, 0x03,
   0x00, 0x04, 0x00, 0x0c, 0xc6, 0x06, 0x00, 0x02, 0x00, 0x03, 0x73, 0x04,
   0x00, 0x02, 0x80, 0xc1, 0x1b, 0x0c, 0x00, 0x02, 0x00, 0x60, 0x1a, 0x04,
   0x80, 0x01, 0x00, 0x18, 0x32, 0x02, 0xc0, 0x00, 0x00, 0x86, 0x21, 0x02,
   0x30, 0x00, 0x00, 0x63, 0xc0, 0x01, 0x10, 0x00, 0x00, 0x30, 0x00, 0x00,
   0x18, 0x00, 0x00, 0x0c, 0x00, 0x00, 0x10, 0x00, 0x00, 0x06, 0x00, 0x00,
   0x30, 0x00, 0x80, 0x01, 0x00, 0x00, 0x20, 0x00, 0xc0, 0x00, 0x00, 0x00,
   0x40, 0x00, 0x30, 0x00, 0x00, 0x00, 0xc0, 0xc0, 0x0f, 0x00, 0x00, 0x00,
   0x80, 0x30, 0x02, 0x00, 0x00, 0x00, 0x80, 0x19, 0x00, 0x00, 0x00, 0x00,
   0x00, 0x07, 0x00, 0x00, 0x00, 0x00, 0x00, 0x00, 0x00, 0x00, 0x00, 0x00,
   0x00, 0x00, 0x00, 0x00, 0x00, 0x00 };
