#define profile_2_width 11
#define profile_2_height 9
static unsigned char profile_2_bits[] = {
   0x00, 0x00, 0xfe, 0x03, 0x02, 0x02, 0x52, 0x02, 0x52, 0x02, 0x52, 0x02,
   0x02, 0x02, 0xfe, 0x03, 0x00, 0x00 };
