#define snow_coldstart_rotate_width 45
#define snow_coldstart_rotate_height 45
static unsigned char snow_coldstart_rotate_bits[] = {
   0x24, 0x01, 0x00, 0x80, 0x0d, 0x00, 0x23, 0x06, 0x00, 0x90, 0x4f, 0x00,
   0x52, 0x02, 0x00, 0x60, 0x37, 0x00, 0x00, 0x80, 0x94, 0x90, 0x4f, 0x00,
   0x00, 0xc0, 0x88, 0x81, 0x0d, 0x00, 0x00, 0x00, 0x49, 0x40, 0x12, 0x08,
   0x00, 0x00, 0x36, 0x30, 0x62, 0x10, 0x00, 0x40, 0x3e, 0x21, 0x25, 0x12,
   0x52, 0x82, 0xdd, 0x00, 0x00, 0x0c, 0x23, 0x46, 0x3e, 0x01, 0x00, 0x12,
   0x24, 0x01, 0x36, 0x00, 0x00, 0x10, 0xd8, 0x00, 0x49, 0x00, 0x00, 0x08,
   0xf9, 0xc4, 0x88, 0x01, 0x00, 0x06, 0x76, 0x83, 0x94, 0x20, 0x25, 0x04,
   0xf9, 0x04, 0x00, 0x30, 0x62, 0x00, 0xd8, 0x00, 0x00, 0x40, 0x12, 0x00,
   0x24, 0x01, 0x00, 0x80, 0x0d, 0x00, 0x23, 0x06, 0x00, 0x90, 0x4f, 0x00,
   0x52, 0x82, 0x94, 0x60, 0x37, 0x04, 0x00, 0xc0, 0x88, 0x91, 0x4f, 0x06,
   0x00, 0x00, 0x49, 0x80, 0x0d, 0x08, 0x00, 0x00, 0x36, 0x40, 0x12, 0x10,
   0x00, 0x40, 0x3e, 0x31, 0x62, 0x12, 0x00, 0x80, 0xdd, 0x20, 0x25, 0x0c,
   0x52, 0x42, 0x3e, 0x01, 0x00, 0x12, 0x23, 0x06, 0x36, 0x00, 0x00, 0x10,
   0x24, 0x01, 0x49, 0x00, 0x00, 0x08, 0xd8, 0xc0, 0x88, 0x01, 0x00, 0x06,
   0xf9, 0x84, 0x94, 0x20, 0x25, 0x04, 0x76, 0x03, 0x00, 0x30, 0x62, 0x00,
   0xf9, 0x04, 0x00, 0x40, 0x12, 0x00, 0xd8, 0x00, 0x00, 0x80, 0x0d, 0x00,
   0x24, 0x01, 0x00, 0x90, 0x4f, 0x00, 0x23, 0x86, 0x94, 0x60, 0x37, 0x04,
   0x52, 0xc2, 0x88, 0x91, 0x4f, 0x06, 0x00, 0x00, 0x49, 0x80, 0x0d, 0x08,
   0x00, 0x00, 0x36, 0x40, 0x12, 0x10, 0x00, 0x40, 0x3e, 0x31, 0x62, 0x12,
   0x00, 0x80, 0xdd, 0x20, 0x25, 0x0c, 0x00, 0x40, 0x3e, 0x01, 0x00, 0x12,
   0x52, 0x02, 0x36, 0x00, 0x00, 0x10, 0x23, 0x06, 0x49, 0x00, 0x00, 0x08,
   0x24, 0xc1, 0x88, 0x01, 0x00, 0x06, 0xd8, 0x80, 0x94, 0x20, 0x25, 0x04,
   0xf9, 0x04, 0x00, 0x30, 0x62, 0x00 };
