#define snow_coldstart_width 45
#define snow_coldstart_height 45
static unsigned char snow_coldstart_bits[] = {
   0x00, 0x40, 0x12, 0x90, 0x04, 0x12, 0x00, 0x80, 0x0d, 0x8c, 0x18, 0x0c,
   0x00, 0x90, 0x4f, 0x48, 0x89, 0x1c, 0x94, 0x60, 0x37, 0x00, 0x00, 0x1b,
   0x88, 0x91, 0x4f, 0x00, 0x80, 0x1c, 0x49, 0x80, 0x0d, 0x00, 0x00, 0x0c,
   0x36, 0x40, 0x12, 0x00, 0x00, 0x12, 0x3e, 0x31, 0x62, 0x00, 0x80, 0x11,
   0xdd, 0x20, 0x25, 0x48, 0x09, 0x09, 0x3e, 0x01, 0x00, 0x8c, 0x18, 0x00,
   0x36, 0x00, 0x00, 0x90, 0x04, 0x00, 0x49, 0x00, 0x00, 0x60, 0x03, 0x00,
   0x88, 0x01, 0x00, 0xe4, 0x13, 0x00, 0x94, 0x20, 0x25, 0xd8, 0x0d, 0x09,
   0x00, 0x30, 0x62, 0xe4, 0x93, 0x11, 0x00, 0x40, 0x12, 0x60, 0x03, 0x12,
   0x00, 0x80, 0x0d, 0x90, 0x04, 0x0c, 0x00, 0x90, 0x4f, 0x8c, 0x98, 0x1c,
   0x00, 0x60, 0x37, 0x48, 0x09, 0x1b, 0x94, 0x90, 0x4f, 0x00, 0x80, 0x1c,
   0x88, 0x81, 0x0d, 0x00, 0x00, 0x0c, 0x49, 0x40, 0x12, 0x00, 0x00, 0x12,
   0x36, 0x30, 0x62, 0x00, 0x80, 0x11, 0x3e, 0x21, 0x25, 0x48, 0x09, 0x09,
   0xdd, 0x00, 0x00, 0x8c, 0x18, 0x00, 0x3e, 0x01, 0x00, 0x90, 0x04, 0x00,
   0x36, 0x00, 0x00, 0x60, 0x03, 0x00, 0x49, 0x00, 0x00, 0xe4, 0x13, 0x00,
   0x88, 0x21, 0x25, 0xd8, 0x0d, 0x09, 0x94, 0x30, 0x62, 0xe4, 0x93, 0x11,
   0x00, 0x40, 0x12, 0x60, 0x03, 0x12, 0x00, 0x80, 0x0d, 0x90, 0x04, 0x0c,
   0x00, 0x90, 0x4f, 0x8c, 0x98, 0x1c, 0x00, 0x60, 0x37, 0x48, 0x09, 0x1b,
   0x00, 0x90, 0x4f, 0x00, 0x80, 0x1c, 0x94, 0x80, 0x0d, 0x00, 0x00, 0x0c,
   0x88, 0x41, 0x12, 0x00, 0x00, 0x12, 0x49, 0x30, 0x62, 0x00, 0x80, 0x11,
   0x36, 0x20, 0x25, 0x48, 0x09, 0x09, 0x3e, 0x01, 0x00, 0x8c, 0x18, 0x00,
   0xdd, 0x00, 0x00, 0x90, 0x04, 0x00, 0x3e, 0x01, 0x00, 0x60, 0x03, 0x00,
   0x36, 0x00, 0x00, 0xe4, 0x13, 0x00, 0x49, 0x20, 0x25, 0xd8, 0x0d, 0x00,
   0x88, 0x31, 0x62, 0xe4, 0x13, 0x09 };
