#define winter_brewing_width 45
#define winter_brewing_height 45
static unsigned char winter_brewing_bits[] = {
   0x00, 0x00, 0x00, 0x00, 0x00, 0x00, 0x00, 0x00, 0x00, 0x00, 0x00, 0x00,
   0x00, 0x00, 0x00, 0x00, 0x00, 0x00, 0x00, 0x40, 0x40, 0x20, 0x00, 0x00,
   0x00, 0xe0, 0xe0, 0x60, 0x00, 0x00, 0x00, 0x60, 0x60, 0x30, 0x00, 0x00,
   0x00, 0x30, 0x30, 0x10, 0x00, 0x00, 0x00, 0x30, 0x30, 0x18, 0x00, 0x00,
   0x00, 0x30, 0x30, 0x18, 0x00, 0x00, 0x00, 0x30, 0x30, 0x18, 0x00, 0x00,
   0x00, 0x70, 0x30, 0x10, 0x00, 0x00, 0x00, 0x60, 0x70, 0x30, 0x00, 0x00,
   0x00, 0x60, 0x60, 0x30, 0x00, 0x00, 0x00, 0x40, 0x40, 0x20, 0x00, 0x00,
   0x00, 0xc0, 0xc0, 0x60, 0x00, 0x00, 0x00, 0xc0, 0xc0, 0x60, 0x00, 0x00,
   0x00, 0x60, 0x60, 0x30, 0x00, 0x00, 0x00, 0x70, 0x70, 0x18, 0x00, 0x00,
   0x00, 0x30, 0x30, 0x18, 0x00, 0x00, 0x00, 0x00, 0x00, 0x00, 0x00, 0x00,
   0x00, 0x00, 0x00, 0x00, 0x00, 0x00, 0xc0, 0xff, 0xff, 0xff, 0x0f, 0x00,
   0xc0, 0xff, 0xff, 0xff, 0x0f, 0x00, 0xc0, 0x01, 0x00, 0x00, 0x0e, 0x00,
   0xc0, 0x00, 0x00, 0x00, 0x3c, 0x00, 0xc0, 0x00, 0x84, 0x00, 0x7c, 0x00,
   0xc0, 0x80, 0x02, 0x05, 0xfc, 0x00, 0xc0, 0x01, 0x01, 0x02, 0xce, 0x01,
   0xc0, 0x01, 0x02, 0x01, 0xce, 0x03, 0x80, 0x01, 0x84, 0x00, 0x87, 0x03,
   0x80, 0x01, 0x79, 0x02, 0x07, 0x03, 0x80, 0x03, 0xff, 0x83, 0x07, 0x03,
   0x00, 0x03, 0xb4, 0x80, 0x83, 0x03, 0x00, 0x03, 0xfc, 0x80, 0x83, 0x01,
   0x00, 0x06, 0x48, 0xc0, 0xc1, 0x01, 0x00, 0x0e, 0x78, 0xc0, 0xc3, 0x01,
   0x00, 0x1c, 0x30, 0xe0, 0xff, 0x00, 0x00, 0x1c, 0x00, 0xf0, 0x7f, 0x00,
   0x00, 0x78, 0x00, 0x78, 0x00, 0x00, 0x00, 0xf0, 0xff, 0x3f, 0x00, 0x00,
   0x00, 0xe0, 0xff, 0x1f, 0x00, 0x00, 0x00, 0xc0, 0xff, 0x0f, 0x00, 0x00,
   0x00, 0x00, 0x00, 0x00, 0x00, 0x00, 0x00, 0x00, 0x00, 0x00, 0x00, 0x00,
   0x00, 0x00, 0x00, 0x00, 0x00, 0x00 };
