#define winter_outer_zone_rotate_width 45
#define winter_outer_zone_rotate_height 45
static unsigned char winter_outer_zone_rotate_bits[] = {
   0x00, 0x00, 0x00, 0x00, 0x00, 0x00, 0x00, 0x00, 0x00, 0x00, 0x00, 0x00,
   0x00, 0x00, 0x00, 0x00, 0x00, 0x00, 0x00, 0x00, 0x00, 0x00, 0x00, 0x00,
   0x00, 0x00, 0x00, 0x00, 0x00, 0x00, 0x00, 0x00, 0x00, 0x00, 0x00, 0x00,
   0x00, 0x00, 0xfe, 0x01, 0x00, 0x00, 0x00, 0x00, 0x01, 0x06, 0x00, 0x00,
   0x00, 0xc0, 0x00, 0x18, 0x00, 0x00, 0x00, 0x40, 0x00, 0x10, 0x00, 0x00,
   0x00, 0x40, 0x8c, 0x11, 0x00, 0x00, 0x00, 0x20, 0x8c, 0x21, 0x00, 0x00,
   0x00, 0x20, 0x00, 0x20, 0x00, 0x00, 0x00, 0x20, 0x20, 0x20, 0x00, 0x00,
   0x00, 0x20, 0x30, 0x20, 0x00, 0x00, 0x00, 0x20, 0x18, 0x20, 0x00, 0x00,
   0x00, 0x20, 0x00, 0x20, 0x00, 0x00, 0x00, 0x40, 0x00, 0x10, 0x00, 0x00,
   0x00, 0x40, 0x30, 0x10, 0x00, 0x00, 0x00, 0xa0, 0x48, 0x28, 0x00, 0x00,
   0x00, 0xf0, 0x03, 0x76, 0x00, 0x00, 0x00, 0x08, 0x8c, 0x4d, 0x00, 0x00,
   0x00, 0x08, 0x70, 0x80, 0x00, 0x00, 0x00, 0x08, 0x00, 0x80, 0x00, 0x00,
   0x00, 0x18, 0x00, 0xc0, 0x00, 0x00, 0x00, 0x70, 0x00, 0x70, 0x00, 0x00,
   0x00, 0x98, 0x07, 0xcf, 0x00, 0x00, 0x00, 0x0c, 0xfc, 0x84, 0x01, 0x00,
   0x00, 0x07, 0x80, 0x04, 0x07, 0x00, 0x80, 0x06, 0x80, 0x08, 0x07, 0x00,
   0x40, 0x02, 0x00, 0x11, 0x0a, 0x00, 0x2e, 0x03, 0x00, 0x22, 0x1a, 0x00,
   0x10, 0x01, 0x00, 0x44, 0x14, 0x00, 0x28, 0x01, 0x00, 0x48, 0xf4, 0x01,
   0x24, 0x01, 0x00, 0x30, 0x34, 0x00, 0x22, 0x01, 0x00, 0x00, 0x4c, 0x00,
   0x00, 0x01, 0x00, 0x00, 0x4c, 0x00, 0x00, 0x01, 0x00, 0x00, 0x8c, 0x00,
   0x00, 0x02, 0x00, 0x00, 0x02, 0x00, 0x00, 0x02, 0x00, 0x00, 0x02, 0x00,
   0x00, 0x04, 0x00, 0x00, 0x01, 0x00, 0x00, 0x0c, 0x00, 0x00, 0x01, 0x00,
   0x00, 0x08, 0x00, 0x80, 0x00, 0x00, 0x00, 0xf8, 0xff, 0xff, 0x00, 0x00,
   0x00, 0xf0, 0xff, 0x7f, 0x00, 0x00 };
