#define winter_brew_ready_width 45
#define winter_brew_ready_height 45
static unsigned char winter_brew_ready_bits[] = {
   0x00, 0x00, 0x00, 0x00, 0x00, 0x00, 0x00, 0x80, 0x07, 0x0e, 0x00, 0x00,
   0x00, 0x80, 0xff, 0x3f, 0x00, 0x00, 0x00, 0xc0, 0xff, 0x7f, 0x00, 0x00,
   0x00, 0xe0, 0xff, 0xff, 0x00, 0x00, 0x00, 0x20, 0x00, 0xc0, 0x01, 0x00,
   0x00, 0x20, 0x00, 0xc0, 0x01, 0x00, 0x00, 0x20, 0x00, 0x40, 0x03, 0x00,
   0x00, 0xe0, 0xff, 0x3f, 0x02, 0x00, 0x00, 0x40, 0x00, 0x10, 0x06, 0x00,
   0x00, 0x40, 0x8c, 0x11, 0x0b, 0x00, 0x00, 0x20, 0x8c, 0x21, 0x09, 0x00,
   0x00, 0x20, 0x00, 0x20, 0x06, 0x00, 0x00, 0x20, 0x20, 0x20, 0x00, 0x00,
   0x00, 0x20, 0x38, 0x20, 0x00, 0x00, 0x00, 0x20, 0x1c, 0x20, 0x00, 0x00,
   0x00, 0x20, 0x04, 0x20, 0x00, 0x00, 0x00, 0x40, 0x00, 0x10, 0x00, 0x00,
   0x00, 0x40, 0x64, 0x10, 0x00, 0x00, 0x00, 0xa0, 0x38, 0x28, 0x00, 0x00,
   0x22, 0xf0, 0x03, 0x76, 0x00, 0x00, 0x24, 0x08, 0x8c, 0x4d, 0x10, 0x01,
   0x28, 0x08, 0x70, 0x80, 0x90, 0x00, 0x10, 0x08, 0x00, 0x80, 0x50, 0x00,
   0x2e, 0x18, 0x00, 0xc0, 0xa0, 0x03, 0x60, 0x70, 0x00, 0x70, 0x30, 0x00,
   0xc0, 0x98, 0x07, 0xcf, 0x18, 0x00, 0x80, 0x0d, 0xfc, 0x84, 0x0d, 0x00,
   0x00, 0x07, 0x80, 0x04, 0x07, 0x00, 0x00, 0x06, 0x80, 0x08, 0x03, 0x00,
   0x00, 0x02, 0x00, 0x11, 0x02, 0x00, 0x00, 0x03, 0x00, 0x22, 0x06, 0x00,
   0x00, 0x01, 0x00, 0x44, 0x04, 0x00, 0x00, 0x01, 0x00, 0x48, 0x04, 0x00,
   0x00, 0x01, 0x00, 0x30, 0x04, 0x00, 0x00, 0x01, 0x00, 0x00, 0x04, 0x00,
   0x00, 0x01, 0x00, 0x00, 0x04, 0x00, 0x00, 0x01, 0x00, 0x00, 0x04, 0x00,
   0x00, 0x02, 0x00, 0x00, 0x02, 0x00, 0x00, 0x02, 0x00, 0x00, 0x02, 0x00,
   0x00, 0x04, 0x00, 0x00, 0x01, 0x00, 0x00, 0x0c, 0x00, 0x00, 0x01, 0x00,
   0x00, 0x08, 0x00, 0x80, 0x00, 0x00, 0x00, 0xf8, 0xff, 0xff, 0x00, 0x00,
   0x00, 0xf0, 0xff, 0x7f, 0x00, 0x00 };
