#define winter_steam_20__20Copy_width 45
#define winter_steam_20__20Copy_height 45
static unsigned char winter_steam_20__20Copy_bits[] = {
   0x00, 0x00, 0xc0, 0x00, 0x00, 0x00, 0x00, 0x00, 0xc0, 0x01, 0x00, 0x00,
   0x00, 0x20, 0x40, 0x03, 0x00, 0x00, 0x00, 0x00, 0x40, 0x02, 0x40, 0x00,
   0x00, 0x00, 0x20, 0x06, 0x00, 0x00, 0x00, 0x20, 0x18, 0x04, 0x00, 0x00,
   0x00, 0x20, 0x0c, 0x0c, 0x40, 0x00, 0x00, 0x70, 0x86, 0x18, 0x60, 0x00,
   0x00, 0x38, 0x83, 0x19, 0x78, 0x00, 0x00, 0x2c, 0x41, 0x11, 0x2c, 0x00,
   0x00, 0x24, 0x41, 0x22, 0x26, 0x00, 0x00, 0x96, 0x61, 0x24, 0x33, 0x00,
   0x00, 0xb3, 0x30, 0x12, 0x11, 0x00, 0x00, 0xa1, 0x18, 0x92, 0x19, 0x00,
   0x00, 0xe1, 0x08, 0x93, 0x18, 0x00, 0x00, 0x41, 0x08, 0xc9, 0x10, 0x00,
   0x00, 0x11, 0x8c, 0x69, 0x30, 0x00, 0x00, 0xe3, 0x84, 0x34, 0x20, 0x00,
   0x00, 0x22, 0x45, 0x1e, 0x10, 0x00, 0x00, 0x44, 0x86, 0x80, 0x18, 0x00,
   0x00, 0xcc, 0x84, 0x5e, 0x0c, 0x00, 0x00, 0x88, 0x01, 0x61, 0x04, 0x00,
   0x00, 0x18, 0x03, 0x18, 0x03, 0x00, 0x00, 0x23, 0x0c, 0xc4, 0x00, 0x00,
   0xc0, 0xcc, 0x29, 0x33, 0x06, 0x00, 0x40, 0x30, 0xff, 0xcf, 0x0b, 0x00,
   0x20, 0xc0, 0xfc, 0x77, 0x18, 0x00, 0x20, 0x00, 0x03, 0x18, 0x20, 0x00,
   0x20, 0x00, 0x0c, 0x06, 0x20, 0x00, 0x40, 0x00, 0xf0, 0x01, 0x18, 0x00,
   0x80, 0x01, 0xc0, 0x01, 0x04, 0x00, 0x00, 0x06, 0x00, 0x8f, 0x03, 0x00,
   0x00, 0x18, 0x00, 0xf8, 0x00, 0x00, 0x00, 0x30, 0x00, 0xc0, 0x01, 0x00,
   0x00, 0xec, 0x00, 0x00, 0x07, 0x00, 0x00, 0x83, 0x03, 0x00, 0x1c, 0x00,
   0xc0, 0x01, 0x0e, 0x00, 0x32, 0x00, 0x60, 0x01, 0x3c, 0x00, 0x23, 0x00,
   0x10, 0x02, 0xe6, 0x01, 0x41, 0x00, 0x10, 0x82, 0x01, 0x0f, 0x61, 0x00,
   0x20, 0x72, 0x00, 0xf8, 0x11, 0x00, 0x20, 0x0f, 0x00, 0xc0, 0x09, 0x00,
   0xc0, 0x03, 0x00, 0x00, 0x0f, 0x00, 0x00, 0x00, 0x00, 0x00, 0x00, 0x00,
   0x00, 0x00, 0x00, 0x00, 0x00, 0x00 };
