#define blynk_not_ok_width 22
#define blynk_not_ok_height 18
static unsigned char blynk_not_ok_bits[] = {
   0x00, 0x00, 0x00, 0x00, 0x00, 0x00, 0xfc, 0xff, 0x0f, 0xfc, 0xff, 0x0f,
   0x0c, 0xfc, 0x0c, 0x0c, 0xfc, 0x0c, 0xcc, 0xf3, 0x0c, 0xcc, 0xf3, 0x0c,
   0x0c, 0xfc, 0x0c, 0x0c, 0xfc, 0x0c, 0xcc, 0xf3, 0x0f, 0xcc, 0xf3, 0x0f,
   0x0c, 0xfc, 0x0c, 0x0c, 0xfc, 0x0c, 0xfc, 0xff, 0x0f, 0xfc, 0xff, 0x0f,
   0x00, 0x00, 0x00, 0x00, 0x00, 0x00 };
