#define mqtt_not_ok_width 22
#define mqtt_not_ok_height 18
static unsigned char mqtt_not_ok_bits[] = {
   0x00, 0x00, 0x00, 0x00, 0x00, 0x00, 0xfc, 0xff, 0x0f, 0xfc, 0xff, 0x0f,
   0xcc, 0xcf, 0x0c, 0xcc, 0xcf, 0x0c, 0x0c, 0xc3, 0x0c, 0x0c, 0xc3, 0x0c,
   0xcc, 0xcc, 0x0c, 0xcc, 0xcc, 0x0c, 0xcc, 0xcf, 0x0f, 0xcc, 0xcf, 0x0f,
   0xcc, 0xcf, 0x0c, 0xcc, 0xcf, 0x0c, 0xfc, 0xff, 0x0f, 0xfc, 0xff, 0x0f,
   0x00, 0x00, 0x00, 0x00, 0x00, 0x00 };
