#define profile_2_width 22
#define profile_2_height 18
static unsigned char profile_2_bits[] = {
   0x00, 0x00, 0x00, 0x00, 0x00, 0x00, 0xfc, 0xff, 0x0f, 0xfc, 0xff, 0x0f,
   0x0c, 0x00, 0x0c, 0x0c, 0x00, 0x0c, 0x0c, 0x33, 0x0c, 0x0c, 0x33, 0x0c,
   0x0c, 0x33, 0x0c, 0x0c, 0x33, 0x0c, 0x0c, 0x33, 0x0c, 0x0c, 0x33, 0x0c,
   0x0c, 0x00, 0x0c, 0x0c, 0x00, 0x0c, 0xfc, 0xff, 0x0f, 0xfc, 0xff, 0x0f,
   0x00, 0x00, 0x00, 0x00, 0x00, 0x00 };
