#define profile_3_width 22
#define profile_3_height 18
static unsigned char profile_3_bits[] = {
   0x00, 0x00, 0x00, 0x00, 0x00, 0x00, 0xfc, 0xff, 0x0f, 0xfc, 0xff, 0x0f,
   0x0c, 0x00, 0x0c, 0x0c, 0x00, 0x0c, 0xcc, 0xcc, 0x0c, 0xcc, 0xcc, 0x0c,
   0xcc, 0xcc, 0x0c, 0xcc, 0xcc, 0x0c, 0xcc, 0xcc, 0x0c, 0xcc, 0xcc, 0x0c,
   0x0c, 0x00, 0x0c, 0x0c, 0x00, 0x0c, 0xfc, 0xff, 0x0f, 0xfc, 0xff, 0x0f,
   0x00, 0x00, 0x00, 0x00, 0x00, 0x00 };
