#define profile_1_width 11
#define profile_1_height 9
static unsigned char profile_1_bits[] = {
   0x00, 0x00, 0xfe, 0x03, 0x02, 0x02, 0x22, 0x02, 0x22, 0x02, 0x22, 0x02,
   0x02, 0x02, 0xfe, 0x03, 0x00, 0x00 };
