#define profile_3_width 11
#define profile_3_height 9
static unsigned char profile_3_bits[] = {
   0x00, 0x00, 0xfe, 0x03, 0x02, 0x02, 0xaa, 0x02, 0xaa, 0x02, 0xaa, 0x02,
   0x02, 0x02, 0xfe, 0x03, 0x00, 0x00 };
